<mxfile host="app.diagrams.net" modified="2022-11-18T15:08:47.936Z" agent="5.0 (Windows NT 10.0; Win64; x64) AppleWebKit/537.36 (KHTML, like Gecko) Chrome/107.0.0.0 Safari/537.36" etag="BTR-EBp7Icn6swft0LzI" version="20.5.1" type="github">
  <diagram id="HmYkqwLpmuTKebb72D1v" name="Page-1">
    <mxGraphModel dx="1185" dy="770" grid="1" gridSize="10" guides="1" tooltips="1" connect="1" arrows="1" fold="1" page="1" pageScale="1" pageWidth="3600" pageHeight="2400" math="0" shadow="0">
      <root>
        <mxCell id="0" />
        <mxCell id="1" parent="0" />
        <mxCell id="Puc4vcn8dm9qU9cr8G19-11" value="&amp;nbsp; &amp;nbsp; &amp;nbsp; &amp;nbsp; &amp;nbsp; &amp;nbsp; &amp;nbsp; &amp;nbsp; &amp;nbsp; &amp;nbsp; &lt;b&gt;vwan&lt;/b&gt;" style="rounded=1;whiteSpace=wrap;html=1;dashed=1;dashPattern=1 1;verticalAlign=top;align=left;" parent="1" vertex="1">
          <mxGeometry x="1130" y="600" width="560" height="470" as="geometry" />
        </mxCell>
        <mxCell id="bEqPmZrcNUUvBmmKXze_-12" style="edgeStyle=orthogonalEdgeStyle;rounded=0;orthogonalLoop=1;jettySize=auto;html=1;exitX=0.75;exitY=1;exitDx=0;exitDy=0;entryX=0.25;entryY=0;entryDx=0;entryDy=0;fontColor=#990000;endArrow=none;endFill=0;" parent="1" source="Puc4vcn8dm9qU9cr8G19-7" target="Puc4vcn8dm9qU9cr8G19-12" edge="1">
          <mxGeometry relative="1" as="geometry" />
        </mxCell>
        <mxCell id="bEqPmZrcNUUvBmmKXze_-13" value="Virtual Network Connection" style="edgeLabel;html=1;align=center;verticalAlign=middle;resizable=0;points=[];fontColor=#990000;" parent="bEqPmZrcNUUvBmmKXze_-12" vertex="1" connectable="0">
          <mxGeometry x="-0.6747" y="-1" relative="1" as="geometry">
            <mxPoint as="offset" />
          </mxGeometry>
        </mxCell>
        <mxCell id="Puc4vcn8dm9qU9cr8G19-7" value="" style="rounded=1;whiteSpace=wrap;html=1;dashed=1;dashPattern=1 1;fillColor=#f5f5f5;strokeColor=#666666;fontColor=#333333;" parent="1" vertex="1">
          <mxGeometry x="1153" y="374" width="200" height="160" as="geometry" />
        </mxCell>
        <mxCell id="Puc4vcn8dm9qU9cr8G19-10" value="" style="aspect=fixed;html=1;points=[];align=center;image;fontSize=12;image=img/lib/azure2/networking/Virtual_WANs.svg;dashed=1;dashPattern=1 1;fillColor=#FFD4D2;" parent="1" vertex="1">
          <mxGeometry x="1140" y="616" width="65" height="64" as="geometry" />
        </mxCell>
        <mxCell id="Puc4vcn8dm9qU9cr8G19-12" value="&lt;b&gt;Secured vHub&lt;/b&gt;" style="rounded=1;whiteSpace=wrap;html=1;dashed=1;dashPattern=1 1;fillColor=#f8cecc;strokeColor=#b85450;verticalAlign=top;" parent="1" vertex="1">
          <mxGeometry x="1190" y="670" width="450" height="270" as="geometry" />
        </mxCell>
        <mxCell id="bEqPmZrcNUUvBmmKXze_-18" style="edgeStyle=orthogonalEdgeStyle;rounded=0;orthogonalLoop=1;jettySize=auto;html=1;exitX=0.5;exitY=0;exitDx=0;exitDy=0;entryX=0.75;entryY=1;entryDx=0;entryDy=0;dashed=1;fontColor=#990000;endArrow=none;endFill=0;" parent="1" source="Puc4vcn8dm9qU9cr8G19-13" target="bEqPmZrcNUUvBmmKXze_-4" edge="1">
          <mxGeometry relative="1" as="geometry" />
        </mxCell>
        <mxCell id="Puc4vcn8dm9qU9cr8G19-13" value="VPN Gateway&lt;br&gt;65515" style="rounded=1;whiteSpace=wrap;html=1;dashed=1;dashPattern=1 1;fillColor=#dae8fc;strokeColor=#6c8ebf;" parent="1" vertex="1">
          <mxGeometry x="1510" y="900" width="120" height="57" as="geometry" />
        </mxCell>
        <mxCell id="Puc4vcn8dm9qU9cr8G19-14" value="" style="aspect=fixed;html=1;points=[];align=center;image;fontSize=12;image=img/lib/azure2/networking/Virtual_Network_Gateways.svg;dashed=1;dashPattern=1 1;fillColor=#dae8fc;strokeColor=#6c8ebf;" parent="1" vertex="1">
          <mxGeometry x="1493" y="907.27" width="32" height="42.46" as="geometry" />
        </mxCell>
        <mxCell id="Puc4vcn8dm9qU9cr8G19-15" style="edgeStyle=orthogonalEdgeStyle;rounded=0;orthogonalLoop=1;jettySize=auto;html=1;exitX=0.5;exitY=1;exitDx=0;exitDy=0;" parent="1" edge="1">
          <mxGeometry relative="1" as="geometry">
            <mxPoint x="1410" y="1079" as="sourcePoint" />
            <mxPoint x="1410" y="1079" as="targetPoint" />
          </mxGeometry>
        </mxCell>
        <mxCell id="Puc4vcn8dm9qU9cr8G19-21" style="edgeStyle=orthogonalEdgeStyle;rounded=0;orthogonalLoop=1;jettySize=auto;html=1;fontSize=12;startArrow=classicThin;startFill=1;endArrow=classicThin;endFill=1;" parent="1" source="Puc4vcn8dm9qU9cr8G19-18" target="Puc4vcn8dm9qU9cr8G19-13" edge="1">
          <mxGeometry relative="1" as="geometry" />
        </mxCell>
        <mxCell id="Puc4vcn8dm9qU9cr8G19-18" value="VPN Site" style="rounded=1;whiteSpace=wrap;html=1;dashed=1;dashPattern=1 1;fillColor=#dae8fc;strokeColor=#6c8ebf;" parent="1" vertex="1">
          <mxGeometry x="1320.5" y="999" width="120" height="70" as="geometry" />
        </mxCell>
        <mxCell id="7EZMF6Ofp1-uIwZRk67G-23" value="" style="group" parent="1" vertex="1" connectable="0">
          <mxGeometry x="1205" y="680" width="49.99999999999994" height="44" as="geometry" />
        </mxCell>
        <mxCell id="7EZMF6Ofp1-uIwZRk67G-5" value="" style="verticalLabelPosition=bottom;sketch=0;html=1;fillColor=#a20025;strokeColor=#6F0000;verticalAlign=top;pointerEvents=1;align=center;shape=mxgraph.cisco_safe.security_icons.firewall;strokeWidth=7;fontColor=#ffffff;gradientColor=none;" parent="7EZMF6Ofp1-uIwZRk67G-23" vertex="1">
          <mxGeometry x="11.363636363636374" y="15.157894736842081" width="27.272727272727273" height="14.736842105263158" as="geometry" />
        </mxCell>
        <mxCell id="7EZMF6Ofp1-uIwZRk67G-21" style="edgeStyle=none;rounded=0;orthogonalLoop=1;jettySize=auto;html=1;entryX=0.501;entryY=0.018;entryDx=0;entryDy=0;entryPerimeter=0;endArrow=none;endFill=0;" parent="7EZMF6Ofp1-uIwZRk67G-23" source="7EZMF6Ofp1-uIwZRk67G-6" target="7EZMF6Ofp1-uIwZRk67G-5" edge="1">
          <mxGeometry relative="1" as="geometry" />
        </mxCell>
        <mxCell id="7EZMF6Ofp1-uIwZRk67G-18" style="edgeStyle=none;rounded=0;orthogonalLoop=1;jettySize=auto;html=1;entryX=0.5;entryY=1;entryDx=0;entryDy=0;endArrow=none;endFill=0;" parent="7EZMF6Ofp1-uIwZRk67G-23" source="7EZMF6Ofp1-uIwZRk67G-5" target="7EZMF6Ofp1-uIwZRk67G-8" edge="1">
          <mxGeometry relative="1" as="geometry" />
        </mxCell>
        <mxCell id="7EZMF6Ofp1-uIwZRk67G-19" style="edgeStyle=none;rounded=0;orthogonalLoop=1;jettySize=auto;html=1;entryX=0.5;entryY=1;entryDx=0;entryDy=0;endArrow=none;endFill=0;" parent="7EZMF6Ofp1-uIwZRk67G-23" source="7EZMF6Ofp1-uIwZRk67G-5" target="7EZMF6Ofp1-uIwZRk67G-10" edge="1">
          <mxGeometry relative="1" as="geometry" />
        </mxCell>
        <mxCell id="7EZMF6Ofp1-uIwZRk67G-15" style="edgeStyle=none;rounded=0;orthogonalLoop=1;jettySize=auto;html=1;entryX=0.5;entryY=0;entryDx=0;entryDy=0;endArrow=none;endFill=0;" parent="7EZMF6Ofp1-uIwZRk67G-23" source="7EZMF6Ofp1-uIwZRk67G-5" target="7EZMF6Ofp1-uIwZRk67G-12" edge="1">
          <mxGeometry relative="1" as="geometry" />
        </mxCell>
        <mxCell id="7EZMF6Ofp1-uIwZRk67G-16" style="edgeStyle=none;rounded=0;orthogonalLoop=1;jettySize=auto;html=1;entryX=0.5;entryY=0;entryDx=0;entryDy=0;endArrow=none;endFill=0;" parent="7EZMF6Ofp1-uIwZRk67G-23" source="7EZMF6Ofp1-uIwZRk67G-5" target="7EZMF6Ofp1-uIwZRk67G-13" edge="1">
          <mxGeometry relative="1" as="geometry" />
        </mxCell>
        <mxCell id="7EZMF6Ofp1-uIwZRk67G-17" style="edgeStyle=none;rounded=0;orthogonalLoop=1;jettySize=auto;html=1;entryX=0.5;entryY=0;entryDx=0;entryDy=0;endArrow=none;endFill=0;" parent="7EZMF6Ofp1-uIwZRk67G-23" source="7EZMF6Ofp1-uIwZRk67G-5" target="7EZMF6Ofp1-uIwZRk67G-14" edge="1">
          <mxGeometry relative="1" as="geometry" />
        </mxCell>
        <mxCell id="7EZMF6Ofp1-uIwZRk67G-12" value="" style="ellipse;whiteSpace=wrap;html=1;verticalAlign=top;fillColor=#647687;strokeColor=#808080;fontColor=#ffffff;sketch=0;strokeWidth=7;" parent="7EZMF6Ofp1-uIwZRk67G-23" vertex="1">
          <mxGeometry x="20.45454545454544" y="36.63157894736844" width="9.09090909090909" height="7.368421052631579" as="geometry" />
        </mxCell>
        <mxCell id="7EZMF6Ofp1-uIwZRk67G-13" value="" style="ellipse;whiteSpace=wrap;html=1;verticalAlign=top;fillColor=#647687;strokeColor=#808080;fontColor=#ffffff;sketch=0;strokeWidth=7;" parent="7EZMF6Ofp1-uIwZRk67G-23" vertex="1">
          <mxGeometry x="40.90909090909088" y="36.63157894736844" width="9.09090909090909" height="7.368421052631579" as="geometry" />
        </mxCell>
        <mxCell id="7EZMF6Ofp1-uIwZRk67G-14" value="" style="ellipse;whiteSpace=wrap;html=1;verticalAlign=top;fillColor=#B3B3B3;strokeColor=#808080;fontColor=#ffffff;sketch=0;strokeWidth=7;" parent="7EZMF6Ofp1-uIwZRk67G-23" vertex="1">
          <mxGeometry y="36.63157894736844" width="9.572727272727272" height="7.368421052631579" as="geometry" />
        </mxCell>
        <mxCell id="7EZMF6Ofp1-uIwZRk67G-6" value="" style="ellipse;whiteSpace=wrap;html=1;verticalAlign=top;fillColor=#647687;strokeColor=#808080;fontColor=#ffffff;sketch=0;strokeWidth=7;" parent="7EZMF6Ofp1-uIwZRk67G-23" vertex="1">
          <mxGeometry x="20.45454545454544" width="9.09090909090909" height="7.368421052631579" as="geometry" />
        </mxCell>
        <mxCell id="7EZMF6Ofp1-uIwZRk67G-8" value="" style="ellipse;whiteSpace=wrap;html=1;verticalAlign=top;fillColor=#647687;strokeColor=#808080;fontColor=#ffffff;sketch=0;strokeWidth=7;" parent="7EZMF6Ofp1-uIwZRk67G-23" vertex="1">
          <mxGeometry x="40.90909090909088" width="9.09090909090909" height="7.368421052631579" as="geometry" />
        </mxCell>
        <mxCell id="7EZMF6Ofp1-uIwZRk67G-10" value="" style="ellipse;whiteSpace=wrap;html=1;verticalAlign=top;fillColor=#647687;strokeColor=#808080;fontColor=#ffffff;sketch=0;strokeWidth=7;" parent="7EZMF6Ofp1-uIwZRk67G-23" vertex="1">
          <mxGeometry width="10.054545454545455" height="7.368421052631579" as="geometry" />
        </mxCell>
        <mxCell id="Puc4vcn8dm9qU9cr8G19-3" value="" style="aspect=fixed;html=1;points=[];align=center;image;fontSize=12;image=img/lib/azure2/networking/Virtual_Networks.svg;" parent="1" vertex="1">
          <mxGeometry x="1173" y="380" width="67" height="40" as="geometry" />
        </mxCell>
        <mxCell id="7EZMF6Ofp1-uIwZRk67G-26" style="edgeStyle=none;rounded=0;orthogonalLoop=1;jettySize=auto;html=1;exitX=0.25;exitY=1;exitDx=0;exitDy=0;entryX=0.75;entryY=0;entryDx=0;entryDy=0;endArrow=none;endFill=0;" parent="1" source="7EZMF6Ofp1-uIwZRk67G-24" target="Puc4vcn8dm9qU9cr8G19-12" edge="1">
          <mxGeometry relative="1" as="geometry" />
        </mxCell>
        <mxCell id="bEqPmZrcNUUvBmmKXze_-11" value="Virtual Network Connection" style="edgeLabel;html=1;align=center;verticalAlign=middle;resizable=0;points=[];fontColor=#990000;" parent="7EZMF6Ofp1-uIwZRk67G-26" vertex="1" connectable="0">
          <mxGeometry x="-0.643" y="1" relative="1" as="geometry">
            <mxPoint as="offset" />
          </mxGeometry>
        </mxCell>
        <mxCell id="7EZMF6Ofp1-uIwZRk67G-24" value="" style="rounded=1;whiteSpace=wrap;html=1;dashed=1;dashPattern=1 1;fillColor=#f5f5f5;strokeColor=#666666;fontColor=#333333;" parent="1" vertex="1">
          <mxGeometry x="1480" y="370" width="200" height="160" as="geometry" />
        </mxCell>
        <mxCell id="7EZMF6Ofp1-uIwZRk67G-25" value="" style="aspect=fixed;html=1;points=[];align=center;image;fontSize=12;image=img/lib/azure2/networking/Virtual_Networks.svg;" parent="1" vertex="1">
          <mxGeometry x="1493" y="380" width="67" height="40" as="geometry" />
        </mxCell>
        <mxCell id="7EZMF6Ofp1-uIwZRk67G-28" value="" style="rounded=1;whiteSpace=wrap;html=1;dashed=1;dashPattern=1 1;fillColor=#f5f5f5;strokeColor=#666666;fontColor=#333333;" parent="1" vertex="1">
          <mxGeometry x="1160" y="1159" width="440" height="160" as="geometry" />
        </mxCell>
        <mxCell id="7EZMF6Ofp1-uIwZRk67G-27" value="" style="outlineConnect=0;dashed=0;verticalLabelPosition=bottom;verticalAlign=top;align=center;html=1;shape=mxgraph.aws3.corporate_data_center;fillColor=#000066;gradientColor=none;strokeColor=#808080;strokeWidth=7;" parent="1" vertex="1">
          <mxGeometry x="1173.5" y="1169" width="46.5" height="63" as="geometry" />
        </mxCell>
        <mxCell id="7EZMF6Ofp1-uIwZRk67G-30" value="VPN Routers" style="rounded=1;whiteSpace=wrap;html=1;dashed=1;dashPattern=1 1;fillColor=#dae8fc;strokeColor=#6c8ebf;" parent="1" vertex="1">
          <mxGeometry x="1320" y="1169" width="120" height="30" as="geometry" />
        </mxCell>
        <mxCell id="7EZMF6Ofp1-uIwZRk67G-29" style="edgeStyle=none;rounded=0;orthogonalLoop=1;jettySize=auto;html=1;entryX=0.5;entryY=0;entryDx=0;entryDy=0;startArrow=none;startFill=0;endArrow=none;endFill=0;" parent="1" source="Puc4vcn8dm9qU9cr8G19-18" target="7EZMF6Ofp1-uIwZRk67G-30" edge="1">
          <mxGeometry relative="1" as="geometry" />
        </mxCell>
        <mxCell id="bEqPmZrcNUUvBmmKXze_-4" value="&lt;b&gt;&lt;font color=&quot;#990000&quot;&gt;&lt;br&gt;&lt;/font&gt;&lt;/b&gt;" style="rounded=1;whiteSpace=wrap;html=1;dashed=1;strokeColor=#660000;verticalAlign=top;align=right;" parent="1" vertex="1">
          <mxGeometry x="1270" y="754" width="310" height="96" as="geometry" />
        </mxCell>
        <mxCell id="bEqPmZrcNUUvBmmKXze_-3" value="" style="aspect=fixed;html=1;points=[];align=center;image;fontSize=12;image=img/lib/azure2/networking/Azure_Firewall_Manager.svg;dashed=1;strokeColor=#808080;" parent="1" vertex="1">
          <mxGeometry x="1270" y="750" width="40" height="34.29" as="geometry" />
        </mxCell>
        <mxCell id="bEqPmZrcNUUvBmmKXze_-15" style="edgeStyle=orthogonalEdgeStyle;rounded=0;orthogonalLoop=1;jettySize=auto;html=1;exitX=0.25;exitY=0;exitDx=0;exitDy=0;entryX=0.25;entryY=0;entryDx=0;entryDy=0;dashed=1;fontColor=#990000;endArrow=none;endFill=0;" parent="1" source="Puc4vcn8dm9qU9cr8G19-12" target="bEqPmZrcNUUvBmmKXze_-4" edge="1">
          <mxGeometry relative="1" as="geometry">
            <Array as="points">
              <mxPoint x="1303" y="710" />
              <mxPoint x="1364" y="710" />
            </Array>
          </mxGeometry>
        </mxCell>
        <mxCell id="bEqPmZrcNUUvBmmKXze_-17" style="edgeStyle=orthogonalEdgeStyle;rounded=0;orthogonalLoop=1;jettySize=auto;html=1;exitX=0.567;exitY=0.008;exitDx=0;exitDy=0;entryX=0.75;entryY=0;entryDx=0;entryDy=0;dashed=1;fontColor=#990000;endArrow=none;endFill=0;exitPerimeter=0;" parent="1" source="bEqPmZrcNUUvBmmKXze_-4" target="Puc4vcn8dm9qU9cr8G19-12" edge="1">
          <mxGeometry relative="1" as="geometry">
            <Array as="points">
              <mxPoint x="1446" y="710" />
              <mxPoint x="1527" y="710" />
            </Array>
          </mxGeometry>
        </mxCell>
        <mxCell id="bEqPmZrcNUUvBmmKXze_-24" value="&lt;span style=&quot;font-size: 10px;&quot;&gt;&lt;font color=&quot;#990000&quot; style=&quot;font-size: 10px;&quot;&gt;Internet Traffic&lt;br style=&quot;font-size: 10px;&quot;&gt;&lt;/font&gt;Send Via Azure Firewall&lt;/span&gt;" style="rounded=1;whiteSpace=wrap;html=1;strokeColor=#E6E6E6;verticalAlign=middle;align=center;fontSize=10;fillColor=default;" parent="1" vertex="1">
          <mxGeometry x="1236" y="907.27" width="120" height="27.27" as="geometry" />
        </mxCell>
        <mxCell id="bEqPmZrcNUUvBmmKXze_-26" value="&lt;span style=&quot;font-size: 10px;&quot;&gt;&lt;font color=&quot;#990000&quot; style=&quot;font-size: 10px;&quot;&gt;Private Traffic&lt;/font&gt;&lt;span style=&quot;color: rgb(153, 0, 0); font-size: 10px;&quot;&gt; &lt;/span&gt;&lt;br style=&quot;font-size: 10px;&quot;&gt;&lt;/span&gt;&lt;span style=&quot;font-size: 10px;&quot;&gt;Send Via Azure Firewall&lt;/span&gt;" style="rounded=1;whiteSpace=wrap;html=1;strokeColor=#E6E6E6;verticalAlign=middle;align=center;fontSize=10;fillColor=default;" parent="1" vertex="1">
          <mxGeometry x="1360" y="907.27" width="120" height="27.27" as="geometry" />
        </mxCell>
        <mxCell id="JewSbVbx7ZH5dj-_vbIj-1" value="&lt;font style=&quot;&quot; color=&quot;#990000&quot;&gt;&amp;nbsp; &amp;nbsp; &amp;nbsp; &amp;nbsp; &amp;nbsp; &amp;nbsp; &amp;nbsp;&amp;nbsp;Azure Firewall Policy&lt;br&gt;Rules: &lt;br&gt;- allow-any-vnet-to-inet&lt;br&gt;- allow-any-onprem-to-vnet&amp;nbsp; &lt;br&gt;- allow-rdp-ssh-vnet-to-inet&lt;br&gt;- deny-any-inet-to-vnet&lt;br&gt;&lt;/font&gt;&lt;b style=&quot;&quot;&gt;&lt;font color=&quot;#990000&quot;&gt;&lt;br&gt;&lt;/font&gt;&lt;/b&gt;" style="text;html=1;strokeColor=none;fillColor=none;align=left;verticalAlign=middle;whiteSpace=wrap;rounded=0;" vertex="1" parent="1">
          <mxGeometry x="1340" y="768" width="220" height="72" as="geometry" />
        </mxCell>
      </root>
    </mxGraphModel>
  </diagram>
</mxfile>
